<?xml version="1.0" encoding="UTF-8"?>
<svg version="1.1" xmlns="http://www.w3.org/2000/svg" width="980" height="980">
<path d="M0 0 C323.4 0 646.8 0 980 0 C980 323.4 980 646.8 980 980 C656.6 980 333.2 980 0 980 C0 656.6 0 333.2 0 0 Z " fill="#FEFEFE" transform="translate(0,0)"/>
<path d="M0 0 C5.57052286 0.22880505 9.25743428 0.77789607 13.53515625 4.7265625 C14.98550408 8.46384878 14.68113594 12.49713689 14.67775726 16.4484539 C14.68100828 17.23467709 14.6842593 18.02090028 14.68760884 18.83094841 C14.69732001 21.48145401 14.69990213 24.13191876 14.70251465 26.78244019 C14.70796042 28.69552482 14.71382382 30.6086083 14.72007036 32.52169049 C14.73593652 37.79139569 14.7454417 43.06109623 14.7538352 48.33081794 C14.76183476 52.84745418 14.77352609 57.36407782 14.78525001 61.8807057 C14.82716415 78.05587076 14.85435853 94.23105062 14.87890625 110.40625 C14.8818686 112.32008664 14.8818686 112.32008664 14.88489079 114.27258664 C14.9229716 138.90223208 14.95654806 163.53188274 14.97814995 188.16154835 C14.98364408 194.42133837 14.98934365 200.6811282 14.99511719 206.94091797 C14.99574961 207.63260888 14.99638204 208.32429979 14.99703363 209.03695103 C15.01772345 231.47319238 15.06370619 253.90928923 15.12376987 276.34545714 C15.18714423 300.06145377 15.22487013 323.77733545 15.23444605 347.49342167 C15.24036528 360.42356882 15.25819985 373.3534682 15.30583191 386.283535 C15.34634465 397.29122569 15.36334406 408.29862819 15.34917909 419.30639015 C15.34269332 424.92548681 15.34769589 430.54396908 15.38305283 436.1629715 C15.41514308 441.30394243 15.41513326 446.44386241 15.38923579 451.58485903 C15.38557281 453.44756883 15.39383147 455.31034684 15.41501731 457.17293976 C15.56383857 471.09215594 15.56383857 471.09215594 13.00713444 475.15433717 C10.01560011 477.82397356 7.01787842 479.55596563 2.91015625 479.4140625 C-0.69753391 479.17396025 -1.46917094 478.72313681 -4.46484375 476.3515625 C-7.6305268 472.1966035 -7.61006817 469.30090152 -7.60185814 464.23514938 C-7.60450997 463.44954551 -7.60716179 462.66394164 -7.60989398 461.85453159 C-7.61761817 459.19408591 -7.61814734 456.53368615 -7.6187439 453.87322998 C-7.62275646 451.95774694 -7.62719434 450.04226476 -7.63202345 448.12678361 C-7.64401769 442.84115478 -7.64964398 437.5555351 -7.65420461 432.26989532 C-7.66014988 426.57786821 -7.67176234 420.8858521 -7.68249512 415.1938324 C-7.70704301 401.43701334 -7.72164935 387.68019064 -7.73455518 373.92335641 C-7.73826524 370.04019387 -7.74223862 366.15703169 -7.74630785 362.27386951 C-7.77154139 338.17850242 -7.79361851 314.08313578 -7.806036 289.98775864 C-7.80895742 284.40378568 -7.81192492 278.81981275 -7.81494141 273.23583984 C-7.81531232 272.54208832 -7.81568322 271.84833679 -7.81606537 271.13356249 C-7.82822356 248.63548758 -7.85917149 226.13749085 -7.90086293 203.63945266 C-7.94484321 179.86298951 -7.97056759 156.08658267 -7.97595656 132.31007695 C-7.9793754 119.34530293 -7.99118631 106.38065226 -8.0240593 93.41591644 C-8.05200252 82.37710278 -8.06308432 71.33843774 -8.05186383 60.29959145 C-8.04666261 54.66442399 -8.04965894 49.02956802 -8.07432938 43.39444542 C-8.09671309 38.23875689 -8.09616693 33.08360559 -8.0771255 27.92790833 C-8.07431018 26.05976411 -8.08000839 24.1915843 -8.09493844 22.32349762 C-8.1139625 19.78878594 -8.10231275 17.25600621 -8.08287621 14.72134018 C-8.09572543 13.99165333 -8.10857465 13.26196647 -8.12181324 12.5101679 C-8.0248616 6.77786083 -5.89005346 1.73621227 0 0 Z " fill="#010101" transform="translate(486.46484375,250.2734375)"/>
<path d="M0 0 C3.17013014 2.04297276 4.15767082 3.46326637 5.8125 6.8125 C6.18854749 9.42188025 6.18854749 9.42188025 6.19002342 12.27077484 C6.19784666 13.36098261 6.20566991 14.45119039 6.21373022 15.57443476 C6.20703805 16.76654487 6.20034589 17.95865499 6.19345093 19.18688965 C6.1981309 20.45761873 6.20281087 21.72834781 6.20763266 23.03758383 C6.22016232 26.56260431 6.21396346 30.08738129 6.20467401 33.61240268 C6.19789186 37.41478044 6.20836059 41.21711606 6.21661377 45.01948547 C6.22996223 52.4674819 6.22706842 59.9153877 6.21837585 67.3633877 C6.21160409 73.41586529 6.21068038 79.46831745 6.2139473 85.52079773 C6.214407 86.38181401 6.21486669 87.24283029 6.21534032 88.12993798 C6.21629949 89.87900866 6.21727213 91.62807933 6.2182581 93.37715 C6.22681525 109.78293933 6.21697276 126.18867839 6.200857 142.59445947 C6.18745352 156.67514009 6.18978152 170.75574651 6.20361328 184.83642578 C6.21966335 201.18301633 6.22599125 217.52956281 6.21677649 233.87616014 C6.21582083 235.61884085 6.21487772 237.36152156 6.2139473 239.10420227 C6.21348447 239.96166206 6.21302164 240.81912186 6.21254479 241.70256528 C6.20995318 247.74863561 6.21432958 253.79467801 6.22138596 259.84074402 C6.22979479 267.20765304 6.22753384 274.57446615 6.21154372 281.94136417 C6.20365266 285.70096674 6.20058354 289.46040933 6.21049118 293.22001076 C6.22106207 297.29285027 6.20845075 301.36528487 6.19345093 305.43811035 C6.20014309 306.63022047 6.20683526 307.82233058 6.21373022 309.05056524 C6.20590697 310.14077302 6.19808373 311.23098079 6.19002342 312.35422516 C6.18953637 313.29436038 6.18904931 314.23449559 6.18854749 315.20311975 C5.5791739 319.43154154 3.51019433 322.07493742 0.625 325.125 C-3.01787031 327.31072219 -6.09285536 327.61223528 -10.1875 326.8125 C-15.76941565 323.97079749 -15.76941565 323.97079749 -16.83944201 321.00630277 C-17.24355379 318.45919402 -17.31551916 316.04184431 -17.31892776 313.46165562 C-17.32276891 312.3699555 -17.32661005 311.27825538 -17.3305676 310.15347344 C-17.32970112 308.95455953 -17.32883463 307.75564563 -17.32794189 306.520401 C-17.33091302 305.24644279 -17.33388414 303.97248459 -17.3369453 302.65992159 C-17.34501315 299.12131698 -17.34680474 295.58273267 -17.34754276 292.04411995 C-17.34939363 288.22878419 -17.35694102 284.41345895 -17.36367798 280.59812927 C-17.37725914 272.25532273 -17.38328536 263.912521 -17.38768864 255.56970525 C-17.39045078 250.36210163 -17.39468802 245.15449987 -17.39919281 239.94689751 C-17.41138397 225.53252943 -17.42168438 211.11816284 -17.4250679 196.70378971 C-17.42528747 195.78129329 -17.42550703 194.85879688 -17.42573325 193.90834602 C-17.42595153 192.98363195 -17.42616981 192.05891787 -17.4263947 191.10618216 C-17.42683817 189.23232782 -17.42728473 187.35847348 -17.42773438 185.48461914 C-17.4279558 184.55512089 -17.42817723 183.62562264 -17.42840537 182.66795778 C-17.43235558 167.59809442 -17.44981706 152.52827935 -17.4730939 137.45843465 C-17.49679116 121.99180221 -17.50926897 106.52519403 -17.51043582 91.05854315 C-17.51135337 82.37234106 -17.51712587 73.68620194 -17.53525543 65.00001717 C-17.55063433 57.60564803 -17.5557899 50.21136132 -17.54751733 42.81697924 C-17.54360328 39.04319832 -17.54457707 35.26958352 -17.55857468 31.49582291 C-17.57360027 27.40762203 -17.56546977 23.31979755 -17.55499268 19.23158264 C-17.56304908 18.03489946 -17.57110548 16.83821628 -17.57940602 15.60526997 C-17.57281618 14.5109621 -17.56622633 13.41665424 -17.5594368 12.28918552 C-17.56003389 11.34547047 -17.56063097 10.40175542 -17.56124616 9.42944294 C-16.96007883 5.22011377 -15.1879094 2.59660466 -11.875 0 C-7.45956116 -1.95100786 -4.48440649 -1.67066124 0 0 Z " fill="#060606" transform="translate(445.1875,327.1875)"/>
<path d="M0 0 C3.75212276 2.01502889 5.63644095 3.45466142 8 7 C8.25299966 9.37265664 8.25299966 9.37265664 8.25726891 12.24062061 C8.2637178 13.33319638 8.27016669 14.42577215 8.276811 15.55145627 C8.2737138 16.75649185 8.2706166 17.96152742 8.26742554 19.20307922 C8.27195665 20.47956099 8.27648776 21.75604276 8.28115618 23.07120579 C8.29342176 26.62156252 8.29312155 30.17182527 8.29076743 33.72219837 C8.29036016 37.54848688 8.3013899 41.3747449 8.31088257 45.20101929 C8.32751336 52.70040191 8.33299306 60.19975311 8.33410732 67.69915263 C8.33505688 73.79409589 8.33916254 79.88902876 8.34550858 85.98396873 C8.36312719 103.25650198 8.37234656 120.52901034 8.37084763 137.80155263 C8.37076772 138.7332097 8.3706878 139.66486676 8.37060547 140.62475586 C8.37052371 141.55754792 8.37044195 142.49033997 8.37035771 143.45139845 C8.36954478 158.56916927 8.38868244 173.68684046 8.4168822 188.80458245 C8.44559543 204.31978378 8.45942334 219.83493649 8.45769465 235.35016507 C8.45703017 244.06381668 8.46254752 252.77736388 8.48405075 261.49099159 C8.50224212 268.91026609 8.50662684 276.32938886 8.4930319 283.74867598 C8.48649164 287.53476957 8.48642277 291.32057189 8.5037384 295.10663795 C8.52231213 299.20997017 8.50994225 303.31262497 8.49447632 307.41596985 C8.50476344 308.61431326 8.51505057 309.81265667 8.52564943 311.04731351 C8.47323969 317.31760958 8.28689858 321.26625114 4 326 C0.58449489 328.59107284 -2.83325464 328.50288306 -7 328 C-10.47565519 325.98287868 -12.70453512 323.88639464 -14 320 C-14.09216953 318.25840273 -14.12554135 316.51344459 -14.12584114 314.76941013 C-14.12844889 313.67908436 -14.13105664 312.58875859 -14.13374341 311.46539265 C-14.13151268 310.26288378 -14.12928196 309.06037492 -14.12698364 307.82142639 C-14.12854363 306.54761704 -14.13010362 305.2738077 -14.13171089 303.96139807 C-14.13589806 300.41859865 -14.13381625 296.87582606 -14.13072467 293.33302653 C-14.12846829 289.5149693 -14.13195139 285.69691678 -14.13470459 281.87886047 C-14.13915884 274.39619294 -14.13818731 266.91353543 -14.13529195 259.4308675 C-14.1330364 253.35068957 -14.13272606 247.27051445 -14.13381577 241.19033623 C-14.133969 240.32598488 -14.13412223 239.46163354 -14.13428011 238.57108973 C-14.13459982 236.81533325 -14.13492404 235.05957678 -14.1352527 233.3038203 C-14.13810652 216.8270304 -14.13482208 200.35024606 -14.12945233 183.87345707 C-14.12498517 169.72821664 -14.12575969 155.58298442 -14.13037109 141.43774414 C-14.13571993 125.02270305 -14.13783101 108.60766683 -14.13475883 92.19262499 C-14.13444027 90.44290984 -14.1341259 88.69319469 -14.13381577 86.94347954 C-14.13366149 86.08252495 -14.13350721 85.22157035 -14.13334826 84.33452623 C-14.13248398 78.26046709 -14.1339441 72.18641103 -14.13629532 66.11235237 C-14.13909698 58.71172799 -14.13834732 51.31111422 -14.13301457 43.91049106 C-14.13038241 40.13284666 -14.12936433 36.35521996 -14.13266373 32.57757568 C-14.13618255 28.48688739 -14.13198724 24.39624398 -14.12698364 20.30555725 C-14.12921436 19.10527911 -14.13144509 17.90500096 -14.13374341 16.66835076 C-14.13113566 15.57541724 -14.12852791 14.48248372 -14.12584114 13.35643101 C-14.12567879 12.41179416 -14.12551644 11.46715732 -14.12534916 10.49389511 C-14.00920799 8.18319846 -13.65375351 6.21208729 -13 4 C-12.34 4 -11.68 4 -11 4 C-11 3.34 -11 2.68 -11 2 C-7.29519659 -0.46986894 -4.29780299 -0.67432448 0 0 Z " fill="#010101" transform="translate(544,326)"/>
<path d="M0 0 C3.75212276 2.01502889 5.63644095 3.45466142 8 7 C8.25299966 9.12899953 8.25299966 9.12899953 8.25726891 11.64716053 C8.2637178 12.60736727 8.27016669 13.567574 8.276811 14.55687791 C8.2737138 15.61405745 8.2706166 16.67123699 8.26742554 17.76045227 C8.27195665 18.88175905 8.27648776 20.00306583 8.28115618 21.1583516 C8.29386961 24.93544299 8.29217533 28.71239147 8.29052734 32.48950195 C8.29541903 35.18954008 8.30325573 37.88956802 8.31088257 40.58959961 C8.32750996 47.17457113 8.33299291 53.75950685 8.33410732 60.3444976 C8.33505706 65.69668775 8.33916362 71.04886607 8.34550858 76.40105247 C8.36312642 91.57076037 8.3723467 106.74043994 8.37084763 121.91015813 C8.37076772 122.72830937 8.3706878 123.5464606 8.37060547 124.3894043 C8.37052371 125.20855299 8.37044195 126.02770169 8.37035771 126.87167307 C8.36954485 140.1464898 8.38868102 153.42119305 8.4168822 166.69597695 C8.445601 180.32179853 8.45942302 193.94756475 8.45769465 207.57341737 C8.45703036 215.22513918 8.46253967 222.87674208 8.48405075 230.52843666 C8.50224948 237.04375189 8.50662083 243.55889429 8.4930319 250.07422391 C8.4864951 253.39864708 8.48857691 256.72246753 8.5037384 260.04690361 C8.51911321 263.65109984 8.50993295 267.25442021 8.49447632 270.8585968 C8.50476344 271.90908418 8.51505057 272.95957155 8.52564943 274.04189187 C8.468993 280.00487961 7.98061726 283.45866494 4 288 C1.28622333 289.83957589 -1.11885827 290.38541159 -4.375 290.5625 C-5.46941406 290.65724609 -5.46941406 290.65724609 -6.5859375 290.75390625 C-10.65568571 289.4829331 -12.88113495 286.6207016 -15 283 C-15.85469166 279.23332886 -15.80677746 275.57050587 -15.75517273 271.7205658 C-15.76382711 270.59175777 -15.77248149 269.46294973 -15.78139812 268.2999354 C-15.80297302 264.52099346 -15.78169845 260.74352568 -15.76049805 256.96459961 C-15.76368418 254.25409784 -15.77582809 251.54365243 -15.78749084 248.83317566 C-15.81029651 242.23791881 -15.80085278 235.64308622 -15.77998998 229.04783791 C-15.76369603 223.68761287 -15.75950883 218.3275035 -15.76395607 212.96725655 C-15.76458675 212.20393761 -15.76521742 211.44061868 -15.76586721 210.65416886 C-15.76721328 209.10344196 -15.76859285 207.55271508 -15.77000556 206.00198824 C-15.78193753 191.46693541 -15.75788809 176.93211503 -15.72098748 162.39711512 C-15.690089 149.92734015 -15.68772704 137.45783266 -15.70678711 124.98803711 C-15.72890208 110.50295536 -15.73504135 96.01802349 -15.71446449 81.53293425 C-15.71230157 79.98826541 -15.71015247 78.44359656 -15.70801735 76.89892769 C-15.70695098 76.13894244 -15.70588462 75.37895719 -15.70478594 74.59594209 C-15.69831829 69.24209978 -15.70308022 63.88833465 -15.71204185 58.53449821 C-15.72258033 52.01005947 -15.71506762 45.48593434 -15.68458607 38.96155351 C-15.66946311 35.63297197 -15.66497215 32.30529719 -15.67677689 28.97663879 C-15.68817035 25.3680585 -15.6688746 21.76091603 -15.64164734 18.15245056 C-15.65211883 17.10080072 -15.66259032 16.04915088 -15.67337912 14.96563286 C-15.60848475 10.3604575 -15.54580037 7.0416064 -12.58489704 3.36547184 C-8.61485593 -0.26756279 -5.2761635 -0.72571766 0 0 Z " fill="#030303" transform="translate(748,345)"/>
<path d="M0 0 C3.33291305 1.70461965 6.30251153 3.60502305 8 7 C8.09584139 8.50041229 8.12916531 10.00502685 8.13142776 11.50849533 C8.13526891 12.46322762 8.13911005 13.41795991 8.1430676 14.40162349 C8.14220112 15.45782492 8.14133463 16.51402635 8.14044189 17.60223389 C8.14341302 18.71860269 8.14638414 19.83497149 8.1494453 20.98516965 C8.1581642 24.75151378 8.15964323 28.51782624 8.16113281 32.28417969 C8.16575874 34.97421419 8.17076224 37.66424577 8.17617798 40.35427856 C8.18977349 47.68077396 8.19578808 55.00726389 8.20018864 62.3337698 C8.20294933 66.90717879 8.20718639 71.48058566 8.21169281 76.05399323 C8.22388768 88.71228783 8.23418616 101.37058072 8.2375679 114.02888107 C8.23778747 114.83942694 8.23800703 115.64997281 8.23823325 116.48508067 C8.23845153 117.29758747 8.23866981 118.11009426 8.2388947 118.94722247 C8.23933817 120.59372123 8.23978473 122.24021999 8.24023438 123.88671875 C8.2404558 124.70344233 8.24067723 125.52016591 8.24090537 126.3616387 C8.24485308 139.59446326 8.26230526 152.82723274 8.2855939 166.06003603 C8.30930196 179.64061955 8.32176952 193.22117543 8.32293582 206.80177999 C8.32385296 214.42890626 8.32961479 222.05596079 8.34775543 229.68306732 C8.36314916 236.17825156 8.36828126 242.67334191 8.36001733 249.16854092 C8.35610802 252.48271559 8.35868284 255.79666138 8.37107468 259.11082077 C8.38372359 262.70398833 8.37795534 266.29666783 8.36749268 269.88983154 C8.37554908 270.93711009 8.38360548 271.98438863 8.39190602 273.06340289 C8.35507643 278.45754793 8.08787348 282.36402551 5 287 C1.52276822 289.98048439 -1.61979263 290.5318101 -6.0703125 290.35546875 C-9.20123478 289.77871991 -10.85418001 288.27204469 -13 286 C-14.83051421 282.97938062 -15.25181322 280.7418379 -15.26006222 277.22979164 C-15.26712781 276.26759386 -15.2741934 275.30539607 -15.2814731 274.31404078 C-15.27905802 273.25977408 -15.27664293 272.20550739 -15.27415466 271.11929321 C-15.27939134 269.99713201 -15.28462802 268.87497081 -15.29002339 267.71880472 C-15.30506918 263.94482501 -15.30572955 260.17098034 -15.30639648 256.39697266 C-15.3129325 253.696786 -15.32239261 250.99661112 -15.33161926 248.2964325 C-15.35446927 240.95146002 -15.36238967 233.60651643 -15.36744571 226.26151323 C-15.37070233 221.67569454 -15.37722454 217.08988423 -15.3844471 212.50407028 C-15.404012 199.80795118 -15.42041719 187.11183988 -15.42332363 174.41570473 C-15.4235112 173.60326149 -15.42369877 172.79081825 -15.42389202 171.95375552 C-15.42425828 170.30673337 -15.42462197 168.65971122 -15.42498314 167.01268907 C-15.42516595 166.19510324 -15.42534876 165.37751741 -15.42553711 164.53515625 C-15.42571766 163.71657306 -15.42589821 162.89798986 -15.42608423 162.05460112 C-15.42962698 148.78629044 -15.45665613 135.51814195 -15.494035 122.24988754 C-15.53210164 108.62855375 -15.55148098 95.00730048 -15.55178314 81.3859123 C-15.55236804 73.73752646 -15.56088076 66.08933415 -15.58978081 58.44099808 C-15.61427267 51.92934283 -15.62159254 45.41795172 -15.60653328 38.90626289 C-15.59935523 35.58374293 -15.60297008 32.2621701 -15.62294388 28.93963814 C-15.64328116 25.33752419 -15.63292329 21.73676934 -15.61473083 18.13467407 C-15.6279308 17.08486882 -15.64113077 16.03506356 -15.65473074 14.95344603 C-15.6014943 10.35041647 -15.54638044 7.04137799 -12.58657932 3.36658287 C-8.64824169 -0.23678714 -5.2468523 -0.86818419 0 0 Z " fill="#060606" transform="translate(290,345)"/>
<path d="M0 0 C3.08501271 0.56137961 5.00485343 1.30969628 7.33984375 3.42578125 C9.59117356 7.70555421 9.62910563 11.81467795 9.61399841 16.54148865 C9.62185343 17.76048712 9.62185343 17.76048712 9.62986714 19.00411183 C9.644858 21.72471497 9.64557208 24.44512989 9.64624023 27.16577148 C9.6538622 29.11734331 9.66228977 31.06891214 9.67146301 33.02047729 C9.69340808 38.32000764 9.70220666 43.61948028 9.70728946 48.91905093 C9.71093227 52.22962615 9.71717188 55.54018624 9.72429085 58.85075569 C9.74878301 70.39896433 9.76183725 81.94712804 9.76538086 93.49536133 C9.76901845 104.2626159 9.79893054 115.02958582 9.84078544 125.79675335 C9.87545863 135.04019349 9.89092877 144.28353913 9.89162689 153.52704388 C9.89242056 159.04822786 9.90120101 164.56912174 9.92962456 170.09023857 C9.95575493 175.28189602 9.95803844 180.47302175 9.94196892 185.66471481 C9.94015057 187.56986587 9.94687986 189.47504716 9.96278763 191.38013268 C9.9831871 193.9817504 9.97273358 196.58149685 9.95457458 199.18309021 C9.96777455 199.93650127 9.98097452 200.68991234 9.99457449 201.46615404 C9.90302182 207.21084978 8.27989381 209.54551561 4.33984375 213.42578125 C1.96913446 214.6111359 0.23444795 214.76550221 -2.41015625 214.92578125 C-3.250625 214.99796875 -4.09109375 215.07015625 -4.95703125 215.14453125 C-9.20402516 214.01527275 -11.36024387 211.07424474 -13.66015625 207.42578125 C-14.4640002 204.60452837 -14.47396618 201.95876542 -14.42205811 199.03833008 C-14.43141805 198.22057759 -14.44077799 197.40282511 -14.45042157 196.56029224 C-14.47425913 193.83379585 -14.45543697 191.10932198 -14.43652344 188.3828125 C-14.44465784 186.42270743 -14.45534329 184.46261153 -14.46838379 182.50253296 C-14.49570845 177.18836809 -14.48514353 171.87490308 -14.46610928 166.56072617 C-14.45090445 160.99595014 -14.46501051 155.43123349 -14.47442627 149.86645508 C-14.48533807 140.52186336 -14.47096717 131.1775563 -14.44238281 121.83300781 C-14.40972998 111.03381317 -14.42030727 100.23529821 -14.45334125 89.43612003 C-14.48058075 80.15945403 -14.48440566 70.88299248 -14.46870923 61.6062994 C-14.4593614 56.06779275 -14.45809048 50.52960544 -14.47792816 44.99111938 C-14.49527768 39.78367976 -14.48320736 34.57711526 -14.44856262 29.36977005 C-14.44063805 27.46022621 -14.4428925 25.55060855 -14.45613861 23.64109421 C-14.4725746 21.03081744 -14.45193314 18.42333198 -14.42205811 15.81323242 C-14.43544244 15.06020749 -14.44882677 14.30718256 -14.46261668 13.53133869 C-14.34630813 8.2810422 -12.73664585 5.58239733 -9.19954801 1.7392168 C-6.24107695 -0.78500164 -3.65785519 -0.28052724 0 0 Z " fill="#030303" transform="translate(237.66015625,382.57421875)"/>
<path d="M0 0 C3.12578143 1.6720747 5.39281175 3.7856235 7 7 C7.09781761 9.60054782 7.13455345 12.17431361 7.12698364 14.77513123 C7.12854363 15.5873503 7.13010362 16.39956937 7.13171089 17.23640114 C7.13571737 19.97329274 7.13253257 22.71012942 7.12939453 25.44702148 C7.13074874 27.40301547 7.13252878 29.3590092 7.13470459 31.31500244 C7.13927691 36.63930213 7.1374901 41.96358252 7.1343255 47.28788257 C7.13180052 52.85053737 7.13413986 58.41319047 7.13571167 63.97584534 C7.13753311 73.3199188 7.13512788 82.66398437 7.13037109 92.00805664 C7.12493011 102.82120186 7.12669004 113.63432823 7.1321975 124.44747299 C7.13673125 133.71882267 7.13737784 142.99016667 7.13475883 152.26151711 C7.1331973 157.80433179 7.13299889 163.34713759 7.13629532 168.88995171 C7.13917777 174.1011023 7.1371914 179.31222851 7.13140106 184.52337646 C7.13007541 186.43944826 7.13046429 188.3555221 7.13266373 190.27159309 C7.13538288 192.88038508 7.13198461 195.48909821 7.12698364 198.09788513 C7.12921436 198.86208108 7.13144509 199.62627703 7.13374341 200.41363043 C7.12202791 203.54915751 6.99941537 206.0017539 6 209 C5.34 209 4.68 209 4 209 C3.731875 209.639375 3.46375 210.27875 3.1875 210.9375 C2 213 2 213 -1 214 C-3.15625 214.203125 -3.15625 214.203125 -5.5 214.25 C-6.66015625 214.28867187 -6.66015625 214.28867187 -7.84375 214.328125 C-10.51815386 213.9211505 -11.38587777 213.1314691 -13 211 C-13 210.34 -13 209.68 -13 209 C-13.66 209 -14.32 209 -15 209 C-16.55153473 205.89693054 -16.14798841 202.61328732 -16.14717102 199.20709229 C-16.15084771 198.39290636 -16.1545244 197.57872043 -16.1583125 196.7398622 C-16.16937546 193.99616488 -16.17319759 191.25250539 -16.17700195 188.50878906 C-16.18326463 186.54780964 -16.18991126 184.58683141 -16.19691467 182.62585449 C-16.21434259 177.28690149 -16.22488131 171.94795745 -16.2331202 166.60898304 C-16.23826655 163.27514553 -16.24434245 159.94131082 -16.25063133 156.60747528 C-16.26968839 146.18183821 -16.28391844 135.75620825 -16.2922433 125.33055711 C-16.30201867 113.28636625 -16.32834393 101.24235903 -16.36874419 89.19823289 C-16.39888081 79.89541409 -16.41370985 70.59264801 -16.41702431 61.28978133 C-16.4193776 55.73058291 -16.42837429 50.17158055 -16.45348549 44.61243439 C-16.47672822 39.38230977 -16.48101469 34.15251085 -16.47072411 28.92234802 C-16.47022771 27.00268726 -16.4765786 25.08301067 -16.49028015 23.16339874 C-16.5079428 20.54215474 -16.50092094 17.92208665 -16.48774719 15.30084229 C-16.49871644 14.54149391 -16.50968568 13.78214554 -16.52098733 12.99978662 C-16.45882066 7.87488743 -15.24568095 4.94173683 -12 1 C-8.27533151 -0.86233425 -4.05504687 -0.57130829 0 0 Z " fill="#060606" transform="translate(698,383)"/>
<path d="M0 0 C0.83144531 -0.0721875 1.66289062 -0.144375 2.51953125 -0.21875 C6.73916224 0.91801735 8.90437329 3.86961599 11.1875 7.5 C11.98309346 10.33936058 11.97671897 12.99945505 11.9090271 15.93455505 C11.91415365 16.7572465 11.9192802 17.57993795 11.9245621 18.42755944 C11.93440619 21.17053431 11.90151363 23.91128253 11.86865234 26.65405273 C11.86695907 28.62550301 11.86791152 30.59695707 11.87130737 32.56840515 C11.87302734 37.9111281 11.8377766 43.25304115 11.79586363 48.59557605 C11.75833012 54.18225153 11.75482918 59.76894603 11.74771118 65.35572815 C11.72907011 75.93088174 11.67984279 86.50566271 11.61961424 97.0806523 C11.55252638 109.1216453 11.51955432 121.16265619 11.48944163 133.20378959 C11.42674333 157.96939956 11.32122236 182.73467889 11.1875 207.5 C10.5275 207.5 9.8675 207.5 9.1875 207.5 C8.919375 208.28375 8.65125 209.0675 8.375 209.875 C7.1875 212.5 7.1875 212.5 4.1875 214.5 C1.91796875 214.94140625 1.91796875 214.94140625 -0.625 215.0625 C-1.87216797 215.15724609 -1.87216797 215.15724609 -3.14453125 215.25390625 C-7.34850604 214.06596023 -9.52466792 211.13149751 -11.8125 207.5 C-12.61453144 204.66117394 -12.61806215 201.99780858 -12.5609436 199.06112671 C-12.56889242 198.23787954 -12.57684123 197.41463237 -12.58503091 196.56643832 C-12.60420527 193.82141089 -12.58069091 191.078464 -12.55712891 188.33349609 C-12.56198726 186.36029798 -12.56942835 184.3871048 -12.57925415 182.41392517 C-12.59804327 177.06473731 -12.5792479 171.71628317 -12.55258989 166.36715269 C-12.52993824 160.76809311 -12.53817749 155.16906905 -12.54208374 149.56997681 C-12.5438487 140.16990179 -12.52170621 130.77011552 -12.48486328 121.37011719 C-12.44250458 110.50055927 -12.43551395 99.63142392 -12.4479872 88.76180017 C-12.45937293 78.30460997 -12.44808669 67.84756866 -12.42564011 57.39039993 C-12.41634851 52.93992995 -12.4146002 48.489551 -12.4188118 44.03907394 C-12.42257682 38.80059798 -12.40637649 33.56255265 -12.37469101 28.32417488 C-12.36620076 26.40089385 -12.36450732 24.47756914 -12.37007141 22.55427742 C-12.37651049 19.93067988 -12.35836754 17.30837101 -12.33389282 14.68490601 C-12.34145147 13.92216444 -12.34901012 13.15942288 -12.35679781 12.37356794 C-12.29685022 8.74619663 -11.90858812 6.65358045 -9.96741295 3.55094337 C-6.90574592 0.63699471 -4.09179618 0.25141605 0 0 Z " fill="#050505" transform="translate(388.8125,382.5)"/>
<path d="M0 0 C3.08501271 0.56137961 5.00485343 1.30969628 7.33984375 3.42578125 C9.58747535 7.69923989 9.62424417 11.79097636 9.60054016 16.51025391 C9.60436571 17.31954157 9.60819126 18.12882923 9.61213273 18.96264076 C9.62244352 21.67177468 9.61847426 24.3806959 9.61450195 27.08984375 C9.61884944 29.03318477 9.62403271 30.97652408 9.62998962 32.91986084 C9.64338564 38.196611 9.64395771 43.47328956 9.64142632 48.75005341 C9.64035721 53.15384054 9.64523837 57.55761315 9.65003175 61.96139717 C9.66112862 72.34862477 9.66156305 82.73581621 9.65551758 93.12304688 C9.64947411 103.84366956 9.66179788 114.56416112 9.68308765 125.28476143 C9.70069026 134.48657125 9.7067072 143.68833928 9.7034499 152.89016533 C9.70163506 158.38720133 9.70429349 163.88414377 9.71816444 169.38116455 C9.73071665 174.54892038 9.7288234 179.71647135 9.71575356 184.88422394 C9.71338268 186.78172118 9.71614067 188.67923272 9.72437668 190.57671356 C9.73480253 193.16515122 9.72677723 195.75289613 9.71406555 198.34130859 C9.72143984 199.09374155 9.72881412 199.84617451 9.73641187 200.62140846 C9.67968875 206.10426234 8.32401243 209.21267004 4.71484375 213.23828125 C0.98383964 215.1037833 -2.58446713 215.223514 -6.66015625 214.42578125 C-9.72265625 212.05078125 -9.72265625 212.05078125 -11.66015625 209.42578125 C-11.66015625 208.76578125 -11.66015625 208.10578125 -11.66015625 207.42578125 C-12.32015625 207.42578125 -12.98015625 207.42578125 -13.66015625 207.42578125 C-13.80030661 181.46999625 -13.90611782 155.51426795 -13.97102928 129.55818081 C-14.00196969 117.50635061 -14.04415412 105.45475549 -14.11279297 93.40307617 C-14.17258886 82.89904644 -14.21130405 72.39518695 -14.22468722 61.89099175 C-14.23251057 56.32880553 -14.25090165 50.76710636 -14.29453659 45.20507622 C-14.33528022 39.96914408 -14.34782157 34.73389933 -14.33880234 29.49782372 C-14.34045218 27.57694513 -14.35237658 25.65604342 -14.3753891 23.73530197 C-14.40530454 21.10947224 -14.39804642 18.48622752 -14.38168335 15.8603363 C-14.40789892 14.72363665 -14.40789892 14.72363665 -14.4346441 13.56397337 C-14.34600915 8.29158733 -12.75601817 5.59463814 -9.20096743 1.73756081 C-6.24000221 -0.78327607 -3.65825644 -0.28055801 0 0 Z " fill="#060606" transform="translate(593.66015625,382.57421875)"/>
<path d="M0 0 C3.1875 1.8125 3.1875 1.8125 6 4 C6.5451507 4.4074454 7.0903014 4.8148908 7.65197182 5.23468304 C9.69012136 7.90375184 9.37775506 10.10776218 9.38095093 13.43257141 C9.3856309 14.08835322 9.39031087 14.74413503 9.39513266 15.41978902 C9.4071177 17.6216166 9.39761214 19.82282578 9.38818359 22.0246582 C9.39224788 23.60155603 9.39758895 25.17845101 9.40411377 26.75534058 C9.41781368 31.04268989 9.41247687 35.3298231 9.40297651 39.61717629 C9.39538973 44.10271561 9.40242316 48.58823622 9.40713501 53.07377625 C9.41259712 60.61033453 9.40539079 68.1468047 9.39111328 75.68334961 C9.37480363 84.3930797 9.38006115 93.10259893 9.3965925 101.81232387 C9.4102156 109.28929234 9.41212246 116.76619738 9.40427649 124.24317425 C9.39960222 128.70907526 9.39896799 133.17487725 9.40888596 137.64077187 C9.4175647 141.84248188 9.41151717 146.04392086 9.39420319 150.24560165 C9.39024242 151.78629672 9.39136538 153.32701467 9.39799118 154.86770058 C9.40621383 156.97426561 9.39587747 159.07996733 9.38095093 161.18647766 C9.37981985 162.36431981 9.37868877 163.54216196 9.37752342 164.7556963 C8.85311718 169.26225939 7.37763224 172.65666566 4.1171875 175.8359375 C1.64344963 177.19603692 -0.05853649 177.52848567 -2.875 177.625 C-3.69742188 177.67914062 -4.51984375 177.73328125 -5.3671875 177.7890625 C-8.85257236 176.74448128 -10.41811126 175.27303814 -12.7080822 172.47978401 C-15.54512917 167.034187 -14.79982507 160.52357751 -14.72875977 154.52124023 C-14.73198148 152.9437489 -14.73780238 151.36626107 -14.74601746 149.78878784 C-14.76052005 145.51792144 -14.73765221 141.2480001 -14.70715833 136.97724795 C-14.68074512 132.50242669 -14.68609054 128.02763296 -14.6872406 123.55274963 C-14.68443388 116.0399704 -14.65842531 108.52755541 -14.61743164 101.01489258 C-14.57024105 92.33459578 -14.55443811 83.65469755 -14.5566383 74.97428173 C-14.5586662 65.7236382 -14.53783603 56.47314788 -14.51029849 47.22255063 C-14.50391126 44.56068351 -14.50177588 41.89884117 -14.50058174 39.23696709 C-14.49756329 35.05157189 -14.47920775 30.86650994 -14.44908333 26.68122482 C-14.44033774 25.14699279 -14.43662628 23.61272239 -14.43836594 22.07846642 C-14.43984409 19.98082795 -14.42281595 17.88411497 -14.40113831 15.78660583 C-14.39611077 14.61395896 -14.39108324 13.44131208 -14.38590336 12.23313046 C-13.82394695 7.52501289 -12.39459716 4.13075445 -8.6875 1.125 C-5.43064391 -0.23833511 -3.50329831 -0.50047119 0 0 Z " fill="#060606" transform="translate(798,401)"/>
<path d="M0 0 C4.77249888 1.77798978 6.75241791 3.47511684 9 8 C9.38311005 10.53223991 9.38311005 10.53223991 9.39440918 13.26168823 C9.40575897 14.30180054 9.41710876 15.34191284 9.42880249 16.4135437 C9.42440659 18.10932053 9.42440659 18.10932053 9.41992188 19.83935547 C9.42839142 21.0382843 9.43686096 22.23721313 9.44558716 23.47247314 C9.46495734 26.753635 9.4707356 30.03444745 9.46883965 33.31565619 C9.46871977 36.05907221 9.47729108 38.80243531 9.48561716 41.54583657 C9.50483913 48.02099091 9.5077397 54.49601635 9.50097656 60.97119141 C9.49433832 67.64070347 9.51719343 74.30966212 9.55429029 80.97906196 C9.58502801 86.71428888 9.5963429 92.44933817 9.59245348 98.18464577 C9.59038991 101.60607399 9.59580318 105.0270716 9.62034607 108.44842148 C9.64248889 112.2666787 9.63285492 116.08360267 9.61523438 119.90185547 C9.63512924 121.5915596 9.63512924 121.5915596 9.65542603 123.31539917 C9.58150782 130.21177478 8.72255619 133.87609674 4 139 C0.76978555 140.61510722 -2.50807351 140.59064184 -6 140 C-9.50455563 138.01816614 -11.77223171 135.34165243 -14 132 C-14.26006222 129.69265175 -14.26006222 129.69265175 -14.27415466 126.92739868 C-14.28412979 125.87873123 -14.29410492 124.83006378 -14.30438232 123.74961853 C-14.305047 122.59941727 -14.30571167 121.449216 -14.30639648 120.26416016 C-14.31472 119.05255722 -14.32304352 117.84095428 -14.33161926 116.59263611 C-14.35160833 113.26813326 -14.36236387 109.94388104 -14.36744571 106.61933947 C-14.37108862 104.54198522 -14.37732834 102.46465509 -14.3844471 100.38731003 C-14.40894381 93.13905529 -14.42199393 85.89087214 -14.42553711 78.64257812 C-14.42917247 71.88788654 -14.4590667 65.13364933 -14.50094169 58.37909663 C-14.53564055 52.57856553 -14.55108547 46.77818505 -14.55178314 40.97755086 C-14.55257613 37.51365883 -14.56132324 34.05022958 -14.58978081 30.58644485 C-14.62081736 26.72232745 -14.6119037 22.85886263 -14.59936523 18.99462891 C-14.61419952 17.8484761 -14.62903381 16.7023233 -14.64431763 15.5214386 C-14.57245197 7.76117039 -14.57245197 7.76117039 -11.65003967 3.87533569 C-7.33738513 0.82342855 -5.34351381 -0.5238739 0 0 Z " fill="#060606" transform="translate(187,420)"/>
<path d="M0 0 C2.76101146 1.82109266 4.52100548 3.04201097 6 6 C6.10757582 7.64147807 6.1525831 9.28722644 6.1673584 10.93215942 C6.17884918 11.97511673 6.19033997 13.01807404 6.20217896 14.09263611 C6.20958099 15.24171951 6.21698303 16.39080292 6.22460938 17.57470703 C6.24169449 19.38466408 6.24169449 19.38466408 6.25912476 21.23118591 C6.2942524 25.24004452 6.32091011 29.24886928 6.34375 33.2578125 C6.3496688 34.28148871 6.3496688 34.28148871 6.35570717 35.32584524 C6.39213589 41.76510149 6.42357432 48.20436874 6.44481659 54.64369392 C6.47236679 62.87320665 6.52307737 71.10185517 6.60529089 79.33100808 C6.6611652 85.12050107 6.69006467 90.90976026 6.6992898 96.69951332 C6.70553599 100.15537819 6.72355149 103.61023019 6.77067566 107.06579971 C6.82267832 110.92709372 6.81888625 114.78726838 6.81054688 118.64892578 C6.83414276 119.7858638 6.85773865 120.92280182 6.88204956 122.0941925 C6.81074571 128.92239604 5.65860782 132.63481251 0.89948273 137.60487175 C-1.74714431 139.54876105 -3.84263468 139.94040821 -7.07421875 139.6015625 C-11.66173762 138.16854443 -14.37895367 134.9315695 -17 131 C-17.25168228 128.72388649 -17.25168228 128.72388649 -17.25396729 126.00332642 C-17.25960693 124.97148727 -17.26524658 123.93964813 -17.27105713 122.87654114 C-17.26700867 121.74504135 -17.26296021 120.61354156 -17.25878906 119.44775391 C-17.2622937 118.25565811 -17.26579834 117.06356232 -17.26940918 115.83534241 C-17.27671097 112.56457287 -17.27498817 109.29396481 -17.26865101 106.02319765 C-17.26358906 102.59955791 -17.26828322 99.17592899 -17.27142334 95.75228882 C-17.2750634 90.00052961 -17.27026388 84.24882173 -17.26074219 78.49707031 C-17.24986787 71.85159769 -17.25337556 65.20624788 -17.264395 58.56077826 C-17.27347909 52.85366982 -17.27474735 47.14659829 -17.26951766 41.43948495 C-17.26640279 38.03165384 -17.2659751 34.62388039 -17.27259064 31.21605301 C-17.27766424 27.41429576 -17.26993302 23.61277479 -17.25878906 19.81103516 C-17.26283752 18.68358383 -17.26688599 17.55613251 -17.27105713 16.39451599 C-17.26541748 15.3570372 -17.25977783 14.31955841 -17.25396729 13.25064087 C-17.25321323 12.35210199 -17.25245918 11.45356312 -17.25168228 10.52779579 C-16.96554566 7.65395447 -16.30805361 5.57329065 -15 3 C-9.95989759 -0.83047784 -6.12015949 -2.04005316 0 0 Z " fill="#060606" transform="translate(648,421)"/>
<path d="M0 0 C3.89028421 2.13584231 6.66586869 4.22568634 9 8 C9.38311005 10.4119854 9.38311005 10.4119854 9.39440918 13.14816284 C9.40575897 14.18834564 9.41710876 15.22852844 9.42880249 16.30023193 C9.42440659 18.00375824 9.42440659 18.00375824 9.41992188 19.74169922 C9.42839142 20.94208832 9.43686096 22.14247742 9.44558716 23.37924194 C9.46497773 26.66865961 9.47073414 29.95772922 9.46883965 33.24719381 C9.4687199 35.99562459 9.47728598 38.74400238 9.48561716 41.49241841 C9.50484968 47.9785428 9.50773592 54.4645385 9.50097656 60.95068359 C9.4943381 67.63553118 9.5171919 74.31982665 9.55429029 81.00456226 C9.58501067 86.74909512 9.59634476 92.4934506 9.59245348 98.23806393 C9.59038805 101.66674054 9.59583201 105.09498765 9.62034607 108.52358627 C9.64246302 112.34934085 9.6328681 116.17376197 9.61523438 119.99951172 C9.63512924 121.69696533 9.63512924 121.69696533 9.65542603 123.42871094 C9.56366023 131.99079778 9.56366023 131.99079778 6.5826416 135.66409302 C3.24309485 138.68459365 1.53526977 139.83667343 -2.9375 140.3125 C-6.49256959 139.9497378 -8.19582377 139.19786786 -11 137 C-13.51943015 133.45291026 -14.37611908 131.01977823 -14.38768005 126.68688965 C-14.39758469 125.63547287 -14.40748932 124.58405609 -14.41769409 123.5007782 C-14.41319244 122.35776749 -14.4086908 121.21475677 -14.40405273 120.03710938 C-14.41091599 118.82521439 -14.41777924 117.6133194 -14.42485046 116.36470032 C-14.44000023 113.04846076 -14.44161707 109.73278401 -14.43590808 106.41655159 C-14.43281426 103.64561168 -14.43891069 100.87472249 -14.44494683 98.10378981 C-14.45898449 91.56638321 -14.4574367 85.02910732 -14.44604492 78.49169922 C-14.43455967 71.75178258 -14.44864756 65.01226367 -14.4754414 58.27239943 C-14.4976036 52.48030787 -14.50423478 46.68834113 -14.49836498 40.89621019 C-14.49499596 37.43914798 -14.49740665 33.98234081 -14.51461601 30.52531433 C-14.53296658 26.6710146 -14.51889265 22.81720366 -14.50170898 18.96289062 C-14.51137695 17.81987991 -14.52104492 16.6768692 -14.53100586 15.4992218 C-14.45860458 7.75843935 -14.45860458 7.75843935 -12.08583069 3.83435059 C-8.14490038 0.36856218 -5.31095688 -0.63731483 0 0 Z " fill="#040404" transform="translate(340,420)"/>
<path d="M0 0 C2.41665621 1.8796215 3.72625968 3.0880428 5.25 5.75 C5.54574465 8.63985141 5.67029904 11.31343729 5.65405273 14.20288086 C5.66091599 15.05374771 5.66777924 15.90461456 5.67485046 16.78126526 C5.69314491 19.59262806 5.68927716 22.40343422 5.68359375 25.21484375 C5.68815436 27.17013226 5.69345957 29.12541917 5.69947815 31.08070374 C5.70841451 35.17878735 5.70598022 39.27667614 5.69604492 43.37475586 C5.68455603 48.62517959 5.70476292 53.87493071 5.73396206 59.12526608 C5.75231288 63.1633379 5.7520338 67.20124822 5.74632454 71.23935127 C5.74617118 73.17503363 5.75222757 75.11072683 5.76461601 77.04636955 C5.77950267 79.75391639 5.76886626 82.46021664 5.75170898 85.16772461 C5.76137695 85.96632904 5.77104492 86.76493347 5.78100586 87.58773804 C5.71436024 92.61311834 4.84435613 95.2182891 1.25 98.75 C-2.23828431 101.27599898 -5.54668393 101.25729677 -9.75 100.75 C-12.72239241 98.96523759 -15.17604027 96.89791945 -16.75 93.75 C-16.85886538 90.99996637 -16.9073264 88.2748716 -16.91113281 85.52416992 C-16.91609772 84.67359512 -16.92106262 83.82302032 -16.92617798 82.94667053 C-16.94081757 80.12459512 -16.94760491 77.30257594 -16.953125 74.48046875 C-16.95887538 72.52232359 -16.96463313 70.56417845 -16.97039795 68.60603333 C-16.98091333 64.49606056 -16.98675235 60.38610738 -16.99023438 56.27612305 C-16.9957174 51.01008814 -17.01973909 45.74431203 -17.04820633 40.47835827 C-17.06683281 36.43173975 -17.07203834 32.38518354 -17.07357025 28.33852577 C-17.07659775 26.39725646 -17.08462956 24.45598827 -17.09775543 22.51476097 C-17.11481458 19.79764528 -17.11293591 17.08116123 -17.10644531 14.36401367 C-17.1156601 13.56226715 -17.12487488 12.76052063 -17.1343689 11.93447876 C-17.10011423 7.35565826 -16.58227629 4.39703361 -13.75 0.75 C-9.61658763 -2.35005928 -4.55745539 -2.07157063 0 0 Z " fill="#030303" transform="translate(851.75,440.25)"/>
<path d="M0 0 C2.97551795 1.77603298 5.42755188 3.85510377 7 7 C7.10882223 9.71952707 7.15732453 12.41383576 7.16113281 15.1340332 C7.16609772 15.97485443 7.17106262 16.81567566 7.17617798 17.68197632 C7.1908171 20.47158621 7.19760485 23.26113921 7.203125 26.05078125 C7.20887544 27.98650617 7.21463318 29.92223106 7.22039795 31.85795593 C7.23091321 35.92085028 7.2367523 39.98372481 7.24023438 44.04663086 C7.24571727 49.25213293 7.26973874 54.45737318 7.29820633 59.66279316 C7.31683363 63.66308862 7.32203838 67.66332107 7.32357025 71.66365623 C7.32659759 73.58259702 7.33462883 75.50153668 7.34775543 77.42043495 C7.36481626 80.10641991 7.36293552 82.791766 7.35644531 85.4777832 C7.3656601 86.27017899 7.37487488 87.06257477 7.3843689 87.87898254 C7.34161565 93.52921502 6.12106109 96.72182327 2.3125 100.8125 C-1.10872305 102.56934427 -4.2951849 102.78220664 -8 102 C-11.0190434 100.24700706 -13.41511201 98.16977599 -15 95 C-15.11933295 92.21971745 -15.17837177 89.46372294 -15.19287109 86.68237305 C-15.20104858 85.82204468 -15.20922607 84.96171631 -15.21765137 84.07531738 C-15.2425171 81.22079163 -15.25902399 78.36631563 -15.2734375 75.51171875 C-15.27876118 74.5378956 -15.28408485 73.56407246 -15.28956985 72.56073952 C-15.316306 67.40679333 -15.3356798 62.25287141 -15.35009766 57.09887695 C-15.3667507 51.77213724 -15.41153272 46.4460156 -15.4624691 41.1195097 C-15.49610419 37.02656839 -15.50767097 32.93377449 -15.51332474 28.84070778 C-15.52004709 26.87707607 -15.53529461 24.9134544 -15.55921555 22.94995689 C-15.5907913 20.20139377 -15.5909155 17.45450699 -15.58349609 14.70581055 C-15.6081041 13.48916466 -15.6081041 13.48916466 -15.63320923 12.24794006 C-15.586504 8.02100407 -15.36069034 6.45783461 -12.65103149 3.01838684 C-8.48436025 -0.15394605 -5.15285634 -0.52401929 0 0 Z " fill="#030303" transform="translate(138,439)"/>
<path d="M0 0 C2.01286964 1.64704176 2.91837497 2.53208454 3.37259549 5.13590354 C3.37145633 5.9701491 3.37031717 6.80439467 3.36914349 7.6639204 C3.37511663 8.62782733 3.38108978 9.59173426 3.38724393 10.58485049 C3.3785054 11.64612275 3.36976688 12.707395 3.36076355 13.80082703 C3.36332682 14.9263672 3.3658901 16.05190737 3.36853105 17.21155483 C3.37349299 21.00275216 3.35693591 24.79355584 3.34057617 28.5847168 C3.33806218 31.29448704 3.34007176 34.00424945 3.34190369 36.71401978 C3.34347823 42.55807802 3.33405019 48.40203594 3.31719017 54.24606895 C3.29282918 62.69558644 3.28499788 71.14505531 3.2812262 79.59460411 C3.27465715 93.30276164 3.25468371 107.01086567 3.22631836 120.71899414 C3.19878951 134.03669975 3.17755019 147.35439083 3.16479492 160.67211914 C3.16400675 161.49275475 3.16321858 162.31339037 3.16240653 163.15889373 C3.15849147 167.27570133 3.15470033 171.39250903 3.15097082 175.5093168 C3.11986079 209.67291637 3.06701268 243.83645242 3 278 C2.67 278 2.34 278 2 278 C1.67 188.9 1.34 99.8 1 8 C0.67 8 0.34 8 0 8 C0 5.36 0 2.72 0 0 Z " fill="#414141" transform="translate(753,349)"/>
<path d="M0 0 C0.33 0 0.66 0 1 0 C1.33 65.34 1.66 130.68 2 198 C2.66 198 3.32 198 4 198 C4.433125 198.928125 4.433125 198.928125 4.875 199.875 C5.93720042 202.13325765 5.93720042 202.13325765 8 204 C8 204.99 8 205.98 8 207 C4.14477602 205.48544772 2.23598491 203.46751239 0 200 C-0.37705898 197.13583853 -0.52462663 194.66404002 -0.48101807 191.80595398 C-0.48443577 190.98497138 -0.48785347 190.16398879 -0.49137473 189.31812793 C-0.49795912 186.56939518 -0.47596867 183.82164071 -0.45410156 181.07299805 C-0.4529732 179.10184248 -0.45360672 177.13068523 -0.45587158 175.15953064 C-0.45702011 169.8086106 -0.43348816 164.4580486 -0.40557575 159.10721183 C-0.38058531 153.51516261 -0.37822195 147.92310535 -0.37347412 142.33100891 C-0.36103744 131.74172197 -0.32820635 121.15260004 -0.28807616 110.56338578 C-0.2433801 98.50789975 -0.22137684 86.45240587 -0.20129442 74.39685762 C-0.15947441 49.59781356 -0.08910879 24.79891602 0 0 Z " fill="#424242" transform="translate(224,390)"/>
<path d="M0 0 C-0.25 1.875 -0.25 1.875 -1 4 C-2.98 4.99 -2.98 4.99 -5 6 C-5.33 72 -5.66 138 -6 206 C-6.33 206 -6.66 206 -7 206 C-7.09338945 179.87924402 -7.16395282 153.75851302 -7.20724869 127.63762379 C-7.22788492 115.50957983 -7.25602588 103.38163954 -7.30175781 91.25366211 C-7.34159298 80.68446287 -7.36742509 70.11533869 -7.37635398 59.54606646 C-7.38157432 53.9482934 -7.39386626 48.35073509 -7.42292023 42.75303078 C-7.45003674 37.48601657 -7.45845255 32.21930593 -7.45243073 26.95222855 C-7.45353264 25.01763065 -7.46150882 23.08302278 -7.4768219 21.14848518 C-7.49669096 18.5092855 -7.49195062 15.87123555 -7.48101807 13.23200989 C-7.49266943 12.46449349 -7.5043208 11.69697709 -7.51632524 10.90620261 C-7.47528609 7.24699683 -7.08266741 5.13524687 -5.15743637 1.98549938 C-3 0 -3 0 0 0 Z " fill="#1C1C1C" transform="translate(384,384)"/>
<path d="M0 0 C0 0.33 0 0.66 0 1 C-1.65 1 -3.3 1 -5 1 C-5.268125 1.639375 -5.53625 2.27875 -5.8125 2.9375 C-7 5 -7 5 -10 6 C-10.33 6.66 -10.66 7.32 -11 8 C-11.66 8 -12.32 8 -13 8 C-12.67 49.58 -12.34 91.16 -12 134 C-14.54065068 131.45934932 -14.25450072 130.57012968 -14.26742554 127.0476532 C-14.27595551 126.00036041 -14.28448547 124.95306763 -14.29327393 123.8740387 C-14.29236755 122.72024216 -14.29146118 121.56644562 -14.29052734 120.37768555 C-14.29724457 119.16622864 -14.30396179 117.95477173 -14.31088257 116.706604 C-14.32665983 113.37790409 -14.33323967 110.04945362 -14.33451414 106.7207334 C-14.33641165 103.94249628 -14.34376773 101.16428318 -14.35085833 98.38605529 C-14.36715603 91.83003038 -14.37202615 85.27406041 -14.37060547 78.71801758 C-14.36940465 71.95602668 -14.39049094 65.19435529 -14.4220928 58.43244523 C-14.44825429 52.62768861 -14.45897278 46.82303632 -14.45769465 41.0182212 C-14.45718483 37.55103672 -14.46287787 34.08413587 -14.48405075 30.61701012 C-14.50703102 26.7480462 -14.49791292 22.87951911 -14.48583984 19.01049805 C-14.49707886 17.8627742 -14.50831787 16.71505035 -14.51989746 15.532547 C-14.45812713 7.75875502 -14.45812713 7.75875502 -12.08682251 3.83137512 C-8.0302785 0.27139159 -5.41495256 -0.24613421 0 0 Z " fill="#313131" transform="translate(340,420)"/>
<path d="M0 0 C6.26079448 -0.43177893 9.09075703 0.07260562 14 4 C10.03295711 5.32234763 6.94567332 5.12733524 3 4 C3.66 3.34 4.32 2.68 5 2 C3.35 1.67 1.7 1.34 0 1 C0 0.67 0 0.34 0 0 Z " fill="#1B1B1B" transform="translate(282,345)"/>
<path d="M0 0 C0.66 0.99 1.32 1.98 2 3 C-1.45454545 6.45454545 -1.45454545 6.45454545 -5 7 C-7.69585012 6.78866185 -10.32221431 6.40166785 -13 6 C-13 5.67 -13 5.34 -13 5 C-11.96939453 4.83564453 -11.96939453 4.83564453 -10.91796875 4.66796875 C-10.01691406 4.50941406 -9.11585938 4.35085938 -8.1875 4.1875 C-6.84751953 3.96126953 -6.84751953 3.96126953 -5.48046875 3.73046875 C-2.81678744 2.94604607 -1.74309678 2.11372201 0 0 Z " fill="#D4D4D4" transform="translate(601,592)"/>
<path d="M0 0 C0.66 0 1.32 0 2 0 C2.28875 0.61875 2.5775 1.2375 2.875 1.875 C3.93720042 4.13325765 3.93720042 4.13325765 6 6 C6 6.99 6 7.98 6 9 C3.15616877 7.7251791 0.86245982 6.54862922 -1 4 C-0.6875 1.8125 -0.6875 1.8125 0 0 Z " fill="#252525" transform="translate(226,588)"/>
<path d="M0 0 C0 0.33 0 0.66 0 1 C-0.84884766 1.16435547 -0.84884766 1.16435547 -1.71484375 1.33203125 C-2.81505859 1.56986328 -2.81505859 1.56986328 -3.9375 1.8125 C-4.66839844 1.96332031 -5.39929688 2.11414063 -6.15234375 2.26953125 C-6.76207031 2.51058594 -7.37179687 2.75164062 -8 3 C-8.33 3.99 -8.66 4.98 -9 6 C-10.65 6.33 -12.3 6.66 -14 7 C-11.07013018 -0.08051873 -7.02367934 -0.35118397 0 0 Z " fill="#2E2E2E" transform="translate(748,345)"/>
<path d="M0 0 C0.66 0.33 1.32 0.66 2 1 C1.04882866 2.1725131 0.08882991 3.33787015 -0.875 4.5 C-1.67550781 5.47453125 -1.67550781 5.47453125 -2.4921875 6.46875 C-2.98976562 6.9740625 -3.48734375 7.479375 -4 8 C-4.66 8 -5.32 8 -6 8 C-6 7.34 -6 6.68 -6 6 C-7.98 6 -9.96 6 -12 6 C-12 5.67 -12 5.34 -12 5 C-11.07767578 4.83564453 -11.07767578 4.83564453 -10.13671875 4.66796875 C-9.32847656 4.50941406 -8.52023438 4.35085938 -7.6875 4.1875 C-6.88699219 4.03667969 -6.08648437 3.88585937 -5.26171875 3.73046875 C-2.76554413 2.92427764 -1.67577894 1.97947998 0 0 Z " fill="#D6D6D6" transform="translate(245,592)"/>
<path d="M0 0 C0.33 0.66 0.66 1.32 1 2 C3.01669827 3.13350534 3.01669827 3.13350534 5 4 C1.36576791 6.32590854 -1.77088331 6.16265833 -6 6 C-4.03617993 4.49440461 -2.21736634 3.10868317 0 2 C0 1.34 0 0.68 0 0 Z " fill="#282828" transform="translate(848,535)"/>
<path d="M0 0 C-0.25 1.875 -0.25 1.875 -1 4 C-1.66 4.268125 -2.32 4.53625 -3 4.8125 C-3.66 5.204375 -4.32 5.59625 -5 6 C-5.81870185 9.56206661 -5.81870185 9.56206661 -6 13 C-6.33 13 -6.66 13 -7 13 C-7.48765108 5.80714661 -7.48765108 5.80714661 -5.1875 2 C-3 0 -3 0 0 0 Z " fill="#2D2D2D" transform="translate(384,384)"/>
<path d="M0 0 C-0.639375 0.28875 -1.27875 0.5775 -1.9375 0.875 C-4.15206079 1.82823451 -4.15206079 1.82823451 -5 4 C-7.32156597 4.40729228 -9.6568787 4.74438677 -12 5 C-7.81374099 0.67419902 -6.05150555 -0.13155447 0 0 Z " fill="#464646" transform="translate(798,401)"/>
<path d="M0 0 C-0.99 1.485 -0.99 1.485 -2 3 C-4.6015625 3.29296875 -4.6015625 3.29296875 -7.625 3.1875 C-9.12933594 3.14689453 -9.12933594 3.14689453 -10.6640625 3.10546875 C-11.82035156 3.05326172 -11.82035156 3.05326172 -13 3 C-13 2.34 -13 1.68 -13 1 C-11.58622218 0.63447197 -10.16879424 0.28304505 -8.75 -0.0625 C-7.96109375 -0.25972656 -7.1721875 -0.45695312 -6.359375 -0.66015625 C-3.89605178 -1.01497267 -2.34395868 -0.76877544 0 0 Z " fill="#D2D2D2" transform="translate(396,381)"/>
<path d="M0 0 C-1.62339805 1.70884005 -3.29319053 3.37446717 -5 5 C-5.66 5 -6.32 5 -7 5 C-7.33 3.68 -7.66 2.36 -8 1 C-3.375 -1.125 -3.375 -1.125 0 0 Z " fill="#EFEFEF" transform="translate(738,347)"/>
<path d="M0 0 C0 3 0 3 -2 5.25 C-6.17886268 7.6876699 -8.33490449 6.94883298 -13 6 C-13 5.67 -13 5.34 -13 5 C-11.96939453 4.83564453 -11.96939453 4.83564453 -10.91796875 4.66796875 C-10.01691406 4.50941406 -9.11585938 4.35085938 -8.1875 4.1875 C-6.84751953 3.96126953 -6.84751953 3.96126953 -5.48046875 3.73046875 C-2.81678744 2.94604607 -1.74309678 2.11372201 0 0 Z " fill="#BDBDBD" transform="translate(499,724)"/>
<path d="M0 0 C0.33 0.99 0.66 1.98 1 3 C-0.4375 5.1875 -0.4375 5.1875 -2 7 C-3.32 6.34 -4.64 5.68 -6 5 C-4.02 3.35 -2.04 1.7 0 0 Z " fill="#D8D8D8" transform="translate(449,648)"/>
<path d="M0 0 C2.92824652 0.97608217 4.61426621 2.10786631 7 4 C-0.50769231 4.36923077 -0.50769231 4.36923077 -3 2.5 C-3.33 2.005 -3.66 1.51 -4 1 C-2.68 1.33 -1.36 1.66 0 2 C0 1.34 0 0.68 0 0 Z " fill="#404040" transform="translate(182,556)"/>
<path d="M0 0 C0.66 0.33 1.32 0.66 2 1 C0.12050295 4.57104439 -1.17053157 6.54744301 -5 8 C-3.8141763 4.62496331 -2.72426311 2.35277269 0 0 Z " fill="#282828" transform="translate(586,383)"/>
<path d="M0 0 C0.99 0.66 1.98 1.32 3 2 C0.36 3.98 -2.28 5.96 -5 8 C-5.66 7.34 -6.32 6.68 -7 6 C-6.030625 5.38125 -5.06125 4.7625 -4.0625 4.125 C-0.97164638 2.34321154 -0.97164638 2.34321154 0 0 Z " fill="#D0D0D0" transform="translate(856,534)"/>
<path d="M0 0 C1.65 1.32 3.3 2.64 5 4 C4.67 5.32 4.34 6.64 4 8 C1.84622436 5.37801226 0.59927826 3.35595828 0 0 Z " fill="#E0E0E0" transform="translate(378,592)"/>
<path d="M0 0 C0.66 0.33 1.32 0.66 2 1 C1.34 2.65 0.68 4.3 0 6 C-0.99 6 -1.98 6 -3 6 C-2 4 -1 2 0 0 Z " fill="#111111" transform="translate(346,550)"/>
<path d="M0 0 C-0.61875 0.0825 -1.2375 0.165 -1.875 0.25 C-4.18437567 0.81258459 -4.18437567 0.81258459 -5.25 3.0625 C-5.4975 3.701875 -5.745 4.34125 -6 5 C-6.33 4.34 -6.66 3.68 -7 3 C-7.66 2.67 -8.32 2.34 -9 2 C-5.86501708 0.14223235 -3.62528568 -0.20140476 0 0 Z " fill="#2F2F2F" transform="translate(645,420)"/>
</svg>
